# xmcd
#
# Track frame offsets:
#	150
#	10662
#	21117
#	39077
#	50470
#	69285
#	87268
#	107248
#	126208
#	136343
#	151363
#	172645
#	186805
#	204485
#	214873
#	226233
#	243513
#	264423
#	292593
#	304230
#
# Disc length: 4295 seconds
#
# Revision: 1
# Processed by: cddbd v1.5.2PL0 Copyright (c) Steve Scherf et al.
# Submitted via: audiograbber 1.83.01
#
DISCID=0010c514
DTITLE=Various Artist - KPP204
DYEAR=1900
DGENRE=Country
TTITLE0=Elvis Presley - Return To Sender
TTITLE1=Sheb Wolley - Purple People Eater
TTITLE2=George Benson - On Broadway
TTITLE3=Tom Jones - What's New Pussycat
TTITLE4=Chris DeBurgh - Lady In Red
TTITLE5=Mindy McCready - Maybe He'll Notice Her Now
TTITLE6=All-4 -One - I Swear
TTITLE7=Eric Clapton - I Shot The Sheriff
TTITLE8=Frankn Sinatra - My Kind Of Town(Chicago Is)
TTITLE9=Sonny and Cher - I Got You Babe
TTITLE10=Lorrie Morgan - Something In Red
TTITLE11=The McCoys - Hang On Snoopy
TTITLE12=The Pointer Sisters - I'm So Excited
TTITLE13=Frank Sinatra - Chicago (That Toddling Town)
TTITLE14=Emmylou Harris - Mr. Sandman
TTITLE15=Vince Gill - Pretty Little Adriana
TTITLE16=Otis Day and The Knights - Shout
TTITLE17=Bob Dylan - Like A Rolling Stone
TTITLE18=Barbra Streisand - Second Hand Rose
TTITLE19=Rod Stewart - Have I Told You Lately That I Love You
EXTD=
EXTT0=
EXTT1=
EXTT2=
EXTT3=
EXTT4=
EXTT5=
EXTT6=
EXTT7=
EXTT8=
EXTT9=
EXTT10=
EXTT11=
EXTT12=
EXTT13=
EXTT14=
EXTT15=
EXTT16=
EXTT17=
EXTT18=
EXTT19=
PLAYORDER=
